<svg width="279" height="114" viewBox="0 0 279 114" fill="none" xmlns="http://www.w3.org/2000/svg">
<rect y="36" width="279" height="78" rx="18" fill="white"/>
<path d="M135.569 6.37203C137.544 3.36241 141.956 3.36242 143.931 6.37204L169.852 45.8822C172.034 49.2073 169.649 53.625 165.672 53.625L113.828 53.625C109.851 53.625 107.466 49.2073 109.648 45.8822L135.569 6.37203Z" fill="white"/>
<g filter="url(#filter0_d_4263_61)">
<path d="M38.9742 74.5039V80.75C38.7633 81.0625 38.4273 81.4141 37.9664 81.8047C37.5055 82.1875 36.8688 82.5234 36.0563 82.8125C35.2516 83.0938 34.2125 83.2344 32.9391 83.2344C31.9 83.2344 30.943 83.0547 30.068 82.6953C29.2008 82.3281 28.4469 81.7969 27.8063 81.1016C27.1734 80.3984 26.6813 79.5469 26.3297 78.5469C25.9859 77.5391 25.8141 76.3984 25.8141 75.125V73.8008C25.8141 72.5273 25.9625 71.3906 26.2594 70.3906C26.5641 69.3906 27.0094 68.543 27.5953 67.8477C28.1813 67.1445 28.9 66.6133 29.7516 66.2539C30.6031 65.8867 31.5797 65.7031 32.6813 65.7031C33.9859 65.7031 35.0758 65.9297 35.9508 66.3828C36.8336 66.8281 37.5211 67.4453 38.0133 68.2344C38.5133 69.0234 38.8336 69.9219 38.9742 70.9297H36.7125C36.6109 70.3125 36.4078 69.75 36.1031 69.2422C35.8063 68.7344 35.3805 68.3281 34.8258 68.0234C34.2711 67.7109 33.5563 67.5547 32.6813 67.5547C31.8922 67.5547 31.2086 67.6992 30.6305 67.9883C30.0523 68.2773 29.5758 68.6914 29.2008 69.2305C28.8258 69.7695 28.5445 70.4219 28.357 71.1875C28.1773 71.9531 28.0875 72.8164 28.0875 73.7773V75.125C28.0875 76.1094 28.2008 76.9883 28.4273 77.7617C28.6617 78.5352 28.9938 79.1953 29.4234 79.7422C29.8531 80.2812 30.3648 80.6914 30.9586 80.9727C31.5602 81.2539 32.2242 81.3945 32.9508 81.3945C33.7555 81.3945 34.4078 81.3281 34.9078 81.1953C35.4078 81.0547 35.7984 80.8906 36.0797 80.7031C36.3609 80.5078 36.5758 80.3242 36.7242 80.1523V76.332H32.775V74.5039H38.9742ZM52.35 65.9375V83H50.0883V65.9375H52.35ZM69.6164 65.9375V83H67.3898V65.9375H69.6164ZM75.1008 65.9375V67.7891H61.9172V65.9375H75.1008ZM95.9766 73.2734V75.1133H86.7422V73.2734H95.9766ZM87.0938 65.9375V83H84.832V65.9375H87.0938ZM97.9453 65.9375V83H95.6953V65.9375H97.9453ZM118.927 65.9375H121.177V77.4805C121.177 78.7617 120.891 79.8281 120.321 80.6797C119.751 81.5312 118.993 82.1719 118.048 82.6016C117.11 83.0234 116.091 83.2344 114.989 83.2344C113.833 83.2344 112.786 83.0234 111.848 82.6016C110.919 82.1719 110.18 81.5312 109.634 80.6797C109.095 79.8281 108.825 78.7617 108.825 77.4805V65.9375H111.063V77.4805C111.063 78.3711 111.227 79.1055 111.555 79.6836C111.884 80.2617 112.341 80.6914 112.927 80.9727C113.52 81.2539 114.208 81.3945 114.989 81.3945C115.778 81.3945 116.466 81.2539 117.052 80.9727C117.645 80.6914 118.106 80.2617 118.434 79.6836C118.763 79.1055 118.927 78.3711 118.927 77.4805V65.9375ZM138.009 75.0195H133.685L133.662 73.2031H137.588C138.236 73.2031 138.802 73.0938 139.287 72.875C139.771 72.6562 140.146 72.3438 140.412 71.9375C140.685 71.5234 140.822 71.0312 140.822 70.4609C140.822 69.8359 140.701 69.3281 140.459 68.9375C140.224 68.5391 139.861 68.25 139.369 68.0703C138.884 67.8828 138.267 67.7891 137.517 67.7891H134.189V83H131.927V65.9375H137.517C138.392 65.9375 139.173 66.0273 139.861 66.207C140.548 66.3789 141.13 66.6523 141.607 67.0273C142.091 67.3945 142.459 67.8633 142.709 68.4336C142.959 69.0039 143.084 69.6875 143.084 70.4844C143.084 71.1875 142.904 71.8242 142.545 72.3945C142.185 72.957 141.685 73.418 141.045 73.7773C140.412 74.1367 139.67 74.3672 138.818 74.4688L138.009 75.0195ZM137.904 83H132.795L134.072 81.1602H137.904C138.623 81.1602 139.232 81.0352 139.732 80.7852C140.24 80.5352 140.627 80.1836 140.892 79.7305C141.158 79.2695 141.291 78.7266 141.291 78.1016C141.291 77.4688 141.177 76.9219 140.951 76.4609C140.724 76 140.369 75.6445 139.884 75.3945C139.4 75.1445 138.775 75.0195 138.009 75.0195H134.787L134.81 73.2031H139.216L139.697 73.8594C140.517 73.9297 141.213 74.1641 141.783 74.5625C142.353 74.9531 142.787 75.4531 143.084 76.0625C143.388 76.6719 143.541 77.3438 143.541 78.0781C143.541 79.1406 143.306 80.0391 142.838 80.7734C142.377 81.5 141.724 82.0547 140.88 82.4375C140.037 82.8125 139.045 83 137.904 83ZM180.359 65.9375V83H178.085L169.495 69.8398V83H167.234V65.9375H169.495L178.12 79.1328V65.9375H180.359ZM193.992 65.9375V83H191.73V65.9375H193.992ZM215.606 77.5742H217.856C217.739 78.6523 217.43 79.6172 216.93 80.4688C216.43 81.3203 215.723 81.9961 214.809 82.4961C213.895 82.9883 212.755 83.2344 211.388 83.2344C210.388 83.2344 209.477 83.0469 208.657 82.6719C207.845 82.2969 207.145 81.7656 206.559 81.0781C205.973 80.3828 205.52 79.5508 205.2 78.582C204.888 77.6055 204.731 76.5195 204.731 75.3242V73.625C204.731 72.4297 204.888 71.3477 205.2 70.3789C205.52 69.4023 205.977 68.5664 206.571 67.8711C207.173 67.1758 207.895 66.6406 208.739 66.2656C209.583 65.8906 210.532 65.7031 211.587 65.7031C212.876 65.7031 213.966 65.9453 214.856 66.4297C215.747 66.9141 216.438 67.5859 216.93 68.4453C217.43 69.2969 217.739 70.2852 217.856 71.4102H215.606C215.497 70.6133 215.294 69.9297 214.997 69.3594C214.7 68.7812 214.278 68.3359 213.731 68.0234C213.184 67.7109 212.47 67.5547 211.587 67.5547C210.829 67.5547 210.161 67.6992 209.583 67.9883C209.013 68.2773 208.532 68.6875 208.141 69.2188C207.759 69.75 207.47 70.3867 207.274 71.1289C207.079 71.8711 206.981 72.6953 206.981 73.6016V75.3242C206.981 76.1602 207.067 76.9453 207.239 77.6797C207.419 78.4141 207.688 79.0586 208.048 79.6133C208.407 80.168 208.864 80.6055 209.419 80.9258C209.973 81.2383 210.63 81.3945 211.388 81.3945C212.348 81.3945 213.114 81.2422 213.684 80.9375C214.255 80.6328 214.684 80.1953 214.973 79.625C215.27 79.0547 215.481 78.3711 215.606 77.5742ZM230.4 65.9375V83H228.138V65.9375H230.4ZM240.701 65.9375L233.611 73.8945L229.627 78.0312L229.252 75.6172L232.252 72.3125L237.982 65.9375H240.701ZM238.521 83L232.205 74.6797L233.552 72.8867L241.216 83H238.521ZM252.659 65.9375L252.506 78.1836H250.549L250.385 65.9375H252.659ZM250.315 81.9102C250.315 81.5586 250.42 81.2617 250.631 81.0195C250.85 80.7773 251.17 80.6562 251.592 80.6562C252.006 80.6562 252.323 80.7773 252.541 81.0195C252.768 81.2617 252.881 81.5586 252.881 81.9102C252.881 82.2461 252.768 82.5352 252.541 82.7773C252.323 83.0195 252.006 83.1406 251.592 83.1406C251.17 83.1406 250.85 83.0195 250.631 82.7773C250.42 82.5352 250.315 82.2461 250.315 81.9102Z" fill="#837FB1"/>
</g>
<defs>
<filter id="filter0_d_4263_61" x="21.8141" y="65.7031" width="235.067" height="25.5312" filterUnits="userSpaceOnUse" color-interpolation-filters="sRGB">
<feFlood flood-opacity="0" result="BackgroundImageFix"/>
<feColorMatrix in="SourceAlpha" type="matrix" values="0 0 0 0 0 0 0 0 0 0 0 0 0 0 0 0 0 0 127 0" result="hardAlpha"/>
<feOffset dy="4"/>
<feGaussianBlur stdDeviation="2"/>
<feComposite in2="hardAlpha" operator="out"/>
<feColorMatrix type="matrix" values="0 0 0 0 0 0 0 0 0 0 0 0 0 0 0 0 0 0 0.25 0"/>
<feBlend mode="normal" in2="BackgroundImageFix" result="effect1_dropShadow_4263_61"/>
<feBlend mode="normal" in="SourceGraphic" in2="effect1_dropShadow_4263_61" result="shape"/>
</filter>
</defs>
</svg>
