<svg width="71" height="77" viewBox="0 0 71 77" fill="none" xmlns="http://www.w3.org/2000/svg">
<path d="M69 35.519C69.0032 29.7785 67.5313 24.1336 64.7255 19.1256C61.9196 14.1176 57.874 9.91469 52.9766 6.91997C48.0792 3.92525 42.4945 2.23922 36.7581 2.02364C31.0217 1.80805 25.3262 3.07014 20.2179 5.68883C15.1095 8.30752 10.7598 12.1949 7.58599 16.9782C4.41216 21.7614 2.52071 27.28 2.09309 33.0045C1.66546 38.7289 2.71601 44.4673 5.14396 49.669C7.5719 54.8707 11.2958 59.3612 15.9583 62.7098V69.019C15.9583 70.4997 16.5466 71.9199 17.5937 72.967C18.6407 74.014 20.0609 74.6023 21.5417 74.6023H49.4583C50.9391 74.6023 52.3593 74.014 53.4063 72.967C54.4534 71.9199 55.0417 70.4997 55.0417 69.019V62.7098C59.3583 59.6096 62.8754 55.527 65.3025 50.799C67.7296 46.0711 68.997 40.8335 69 35.519V35.519Z" stroke="#000001" stroke-width="3" stroke-linecap="round" stroke-linejoin="round"/>
<path d="M21.5417 41.1024C23.0835 41.1024 24.3333 39.8525 24.3333 38.3107C24.3333 36.7689 23.0835 35.519 21.5417 35.519C19.9999 35.519 18.75 36.7689 18.75 38.3107C18.75 39.8525 19.9999 41.1024 21.5417 41.1024Z" stroke="#000001" stroke-width="3" stroke-linecap="round" stroke-linejoin="round"/>
<path d="M49.4584 41.1024C51.0002 41.1024 52.2501 39.8525 52.2501 38.3107C52.2501 36.7689 51.0002 35.519 49.4584 35.519C47.9166 35.519 46.6667 36.7689 46.6667 38.3107C46.6667 39.8525 47.9166 41.1024 49.4584 41.1024Z" stroke="#000001" stroke-width="3" stroke-linecap="round" stroke-linejoin="round"/>
<path d="M29.9167 63.4358V74.6025" stroke="#000001" stroke-width="3" stroke-linecap="round" stroke-linejoin="round"/>
<path d="M41.0833 63.4358V74.6025" stroke="#000001" stroke-width="3" stroke-linecap="round" stroke-linejoin="round"/>
</svg>
